<svg id="svg" version="1.1" width="400" height="378.29457364341084" xmlns="http://www.w3.org/2000/svg" xmlns:xlink="http://www.w3.org/1999/xlink" style="display: block;"><g id="svgg"><path id="path0" d="M112.466 40.303 C 112.392 45.257,112.242 46.905,111.814 47.471 C 111.508 47.875,111.261 48.386,111.265 48.606 C 111.268 48.826,111.613 48.473,112.031 47.821 C 112.728 46.732,112.781 46.109,112.677 40.252 L 112.563 33.869 112.466 40.303 M58.824 60.549 C 58.824 66.689,58.876 69.201,58.940 66.131 C 59.003 63.061,59.003 58.037,58.940 54.967 C 58.876 51.897,58.824 54.409,58.824 60.549 M186.355 60.549 C 186.355 66.689,186.407 69.201,186.470 66.131 C 186.534 63.061,186.534 58.037,186.470 54.967 C 186.407 51.897,186.355 54.409,186.355 60.549 M156.001 73.794 C 156.001 74.522,156.079 74.820,156.174 74.456 C 156.269 74.092,156.269 73.496,156.174 73.132 C 156.079 72.767,156.001 73.065,156.001 73.794 M175.316 76.443 C 175.316 77.379,175.390 77.763,175.480 77.294 C 175.570 76.826,175.570 76.060,175.480 75.591 C 175.390 75.123,175.316 75.506,175.316 76.443 M154.865 78.713 C 154.865 79.442,154.943 79.740,155.039 79.376 C 155.134 79.011,155.134 78.415,155.039 78.051 C 154.943 77.687,154.865 77.985,154.865 78.713 M153.352 85.525 C 153.352 86.254,153.430 86.552,153.525 86.187 C 153.620 85.823,153.620 85.227,153.525 84.863 C 153.430 84.499,153.352 84.797,153.352 85.525 M149.652 95.497 C 148.969 96.248,148.666 96.878,148.988 96.878 C 149.321 96.878,150.369 95.366,150.168 95.176 C 150.102 95.114,149.869 95.258,149.652 95.497 M137.895 116.757 C 137.550 117.284,137.336 117.784,137.420 117.868 C 137.505 117.952,137.860 117.521,138.211 116.910 C 138.992 115.550,138.760 115.437,137.895 116.757 M129.025 128.876 C 128.525 129.408,128.371 129.745,128.683 129.626 C 129.176 129.437,130.401 127.909,130.060 127.909 C 129.990 127.909,129.524 128.344,129.025 128.876 M224.125 139.924 C 255.501 139.978,306.845 139.978,338.221 139.924 C 369.598 139.871,343.926 139.827,281.173 139.827 C 218.420 139.827,192.748 139.871,224.125 139.924 M165.212 140.614 C 164.311 141.514,164.500 141.748,165.468 140.933 C 165.937 140.539,166.391 140.172,166.477 140.118 C 166.564 140.063,166.449 140.019,166.221 140.019 C 165.993 140.019,165.539 140.287,165.212 140.614 M161.398 259.792 C 161.398 321.608,161.441 346.841,161.495 315.863 C 161.548 284.886,161.548 234.309,161.495 203.470 C 161.441 172.631,161.398 197.975,161.398 259.792 M85.011 171.148 C 84.829 171.845,84.853 171.848,85.551 171.216 C 86.425 170.425,86.426 170.419,85.742 170.419 C 85.445 170.419,85.116 170.747,85.011 171.148 M244.150 244.825 C 243.929 245.460,243.828 245.979,243.927 245.979 C 244.182 245.979,244.896 244.013,244.709 243.826 C 244.623 243.740,244.372 244.190,244.150 244.825 M295.038 259.035 C 295.913 260.529,295.932 260.551,295.932 260.086 C 295.932 259.866,295.581 259.284,295.153 258.793 L 294.373 257.900 295.038 259.035 M339.830 317.019 C 339.830 317.239,340.180 317.821,340.609 318.312 L 341.388 319.205 340.724 318.070 C 339.849 316.576,339.830 316.554,339.830 317.019 M309.942 318.767 C 309.938 318.942,310.274 319.519,310.691 320.048 C 311.107 320.577,311.444 320.860,311.439 320.675 C 311.428 320.234,309.953 318.354,309.942 318.767 M162.209 375.213 C 163.084 376.707,163.103 376.729,163.103 376.264 C 163.103 376.044,162.752 375.462,162.324 374.971 L 161.544 374.078 162.209 375.213 " stroke="none" fill="#0000ff" fill-rule="evenodd"></path><path id="path1" d="M2.526 0.547 C 1.730 0.832,0.964 1.181,0.823 1.321 C 0.683 1.462,0.568 54.396,0.568 118.953 L 0.568 236.329 1.814 236.732 C 2.499 236.954,3.395 237.422,3.805 237.773 C 4.498 238.366,9.643 238.411,77.711 238.411 L 150.872 238.411 151.311 237.447 C 151.630 236.747,151.750 229.709,151.750 211.731 L 151.750 186.979 150.787 186.015 C 150.257 185.486,149.619 185.050,149.368 185.048 C 149.117 185.046,148.316 184.367,147.588 183.538 C 146.859 182.710,146.059 182.030,145.809 182.028 C 145.559 182.026,145.218 181.792,145.052 181.508 C 144.885 181.224,144.214 180.718,143.560 180.384 C 142.905 180.050,141.854 179.260,141.223 178.630 C 140.593 177.999,139.974 177.483,139.848 177.483 C 139.722 177.483,137.581 175.442,135.089 172.947 C 132.597 170.452,130.557 168.537,130.556 168.690 C 130.554 168.843,130.215 168.458,129.801 167.833 C 129.388 167.209,129.048 166.852,129.047 167.040 C 129.046 167.228,128.746 167.048,128.382 166.640 C 126.307 164.317,122.281 163.810,121.652 165.793 C 121.527 166.187,121.222 166.509,120.974 166.509 C 120.726 166.509,120.310 166.850,120.050 167.266 C 119.790 167.682,119.335 168.023,119.038 168.023 C 118.742 168.023,118.391 168.363,118.259 168.780 C 118.127 169.196,117.875 169.536,117.699 169.536 C 117.522 169.536,116.780 170.117,116.050 170.826 C 115.319 171.536,114.656 172.051,114.576 171.971 C 114.496 171.892,113.552 172.665,112.478 173.689 C 111.403 174.714,110.179 175.737,109.756 175.964 C 109.333 176.190,108.988 176.624,108.988 176.929 C 108.988 177.234,108.825 177.483,108.626 177.483 C 108.427 177.483,107.214 178.505,105.930 179.754 C 104.645 181.003,103.361 182.025,103.075 182.025 C 102.788 182.025,102.554 182.223,102.554 182.466 C 102.554 182.709,102.455 182.808,102.334 182.687 C 102.103 182.456,101.893 182.617,99.212 185.067 C 98.311 185.891,97.484 186.566,97.375 186.566 C 97.266 186.566,96.641 186.990,95.987 187.508 C 95.332 188.027,94.399 188.751,93.914 189.117 C 92.022 190.543,91.095 191.329,90.338 192.148 C 89.906 192.616,89.329 192.999,89.056 192.999 C 88.568 192.999,87.861 193.500,85.988 195.175 C 85.465 195.643,84.804 196.026,84.520 196.026 C 84.236 196.026,83.712 196.367,83.356 196.783 C 82.999 197.200,82.500 197.540,82.246 197.540 C 81.992 197.540,81.561 197.842,81.289 198.210 C 81.017 198.578,79.816 199.466,78.619 200.182 C 77.422 200.898,76.443 201.619,76.443 201.783 C 76.443 201.947,76.187 202.081,75.875 202.081 C 75.563 202.081,75.307 201.826,75.307 201.514 C 75.307 201.202,75.150 200.946,74.957 200.946 C 74.764 200.946,74.369 200.478,74.080 199.905 C 73.103 197.972,72.472 196.983,71.832 196.387 C 71.482 196.060,71.083 195.347,70.947 194.802 C 70.810 194.257,70.458 193.719,70.165 193.606 C 69.871 193.493,69.631 193.165,69.631 192.877 C 69.631 192.589,69.205 191.893,68.685 191.332 C 68.165 190.770,67.739 189.988,67.739 189.592 C 67.739 189.197,67.522 188.738,67.257 188.571 C 65.194 187.277,65.198 185.188,67.264 184.099 C 68.966 183.201,69.434 182.858,70.482 181.741 C 70.922 181.272,71.511 180.889,71.793 180.889 C 72.074 180.889,72.399 180.642,72.515 180.340 C 72.631 180.038,73.291 179.604,73.983 179.376 C 74.675 179.147,75.335 178.713,75.451 178.411 C 75.567 178.109,75.917 177.862,76.228 177.862 C 76.540 177.862,76.977 177.521,77.200 177.105 C 77.422 176.689,77.802 176.348,78.044 176.348 C 79.012 176.348,82.876 173.306,82.876 172.544 C 82.876 172.325,83.387 171.968,84.011 171.750 C 84.636 171.533,85.147 171.106,85.147 170.802 C 85.147 170.497,85.303 170.345,85.495 170.464 C 85.686 170.582,86.106 170.416,86.427 170.094 C 86.749 169.772,87.065 169.558,87.129 169.618 C 87.268 169.745,87.999 169.136,90.173 167.082 C 91.791 165.554,91.994 165.399,94.150 164.049 C 94.815 163.633,95.361 163.079,95.362 162.819 C 95.363 162.559,95.541 162.346,95.756 162.346 C 96.213 162.346,96.952 161.695,101.015 157.711 C 102.660 156.097,104.196 154.778,104.427 154.778 C 104.659 154.778,104.953 154.505,105.081 154.172 C 105.399 153.343,106.747 152.048,107.958 151.409 C 108.510 151.118,108.880 150.747,108.780 150.585 C 108.680 150.423,108.941 150.182,109.361 150.049 C 109.780 149.916,110.123 149.638,110.123 149.432 C 110.123 149.225,110.274 149.150,110.458 149.264 C 111.462 149.884,111.500 145.348,110.501 144.078 C 110.085 143.549,109.745 142.936,109.745 142.716 C 109.745 142.496,109.404 142.134,108.988 141.911 C 108.571 141.688,108.231 141.194,108.231 140.814 C 108.231 140.433,107.890 139.688,107.474 139.159 C 107.058 138.630,106.717 138.017,106.717 137.797 C 106.717 137.577,106.390 137.222,105.991 137.008 C 105.592 136.794,105.152 136.107,105.015 135.481 C 104.877 134.855,104.607 134.342,104.413 134.342 C 104.220 134.342,103.790 133.662,103.457 132.831 C 103.125 132.000,102.721 131.401,102.560 131.501 C 102.400 131.600,102.164 131.159,102.036 130.521 C 101.909 129.883,101.462 128.927,101.044 128.395 C 100.626 127.864,100.284 127.214,100.284 126.953 C 100.284 126.691,100.038 126.382,99.737 126.267 C 99.436 126.151,99.079 125.464,98.943 124.739 C 98.807 124.014,98.457 123.329,98.165 123.217 C 97.874 123.105,97.635 122.750,97.635 122.429 C 97.635 121.855,96.911 120.335,96.460 119.962 C 96.334 119.858,96.010 119.092,95.740 118.259 C 95.470 117.427,95.037 116.405,94.776 115.989 C 94.516 115.572,94.188 114.677,94.046 113.999 C 93.905 113.320,93.636 112.860,93.449 112.976 C 93.261 113.091,92.994 112.473,92.855 111.602 C 92.716 110.731,92.287 109.749,91.902 109.419 C 91.517 109.089,91.202 108.430,91.202 107.954 C 91.202 107.478,90.861 106.797,90.445 106.440 C 89.980 106.042,89.688 105.324,89.688 104.577 C 89.688 103.695,89.481 103.297,88.931 103.122 C 88.370 102.944,88.174 102.549,88.174 101.601 C 88.174 100.277,87.500 98.392,87.027 98.392 C 86.879 98.392,86.642 97.365,86.500 96.111 C 86.358 94.857,86.093 93.923,85.911 94.035 C 85.536 94.267,85.315 93.631,84.947 91.270 C 84.807 90.371,84.475 89.552,84.209 89.450 C 83.938 89.345,83.616 88.293,83.475 87.051 C 83.316 85.640,83.024 84.761,82.672 84.626 C 81.605 84.216,82.136 83.716,83.917 83.454 C 84.905 83.308,86.225 82.963,86.850 82.686 C 87.474 82.409,88.836 82.067,89.877 81.926 C 90.918 81.784,92.195 81.439,92.715 81.158 C 93.236 80.877,94.641 80.540,95.838 80.410 C 97.034 80.279,98.257 79.929,98.554 79.632 C 99.846 78.340,102.554 79.601,102.554 81.495 C 102.554 82.616,103.291 84.768,103.674 84.768 C 103.833 84.768,104.069 85.662,104.198 86.755 C 104.327 87.848,104.670 88.915,104.960 89.127 C 105.250 89.339,105.611 90.415,105.763 91.519 C 105.914 92.623,106.260 93.611,106.530 93.714 C 106.800 93.818,107.132 94.492,107.267 95.212 C 107.402 95.932,107.828 97.070,108.213 97.740 C 108.599 98.411,109.030 99.514,109.171 100.193 C 109.312 100.871,109.565 101.341,109.732 101.237 C 110.073 101.027,110.488 102.301,110.496 103.582 C 110.499 104.043,110.842 104.602,111.258 104.825 C 111.739 105.082,112.015 105.617,112.015 106.293 C 112.015 106.878,112.356 107.665,112.772 108.042 C 113.188 108.418,113.533 109.168,113.537 109.709 C 113.542 110.249,113.879 111.116,114.286 111.637 C 114.693 112.157,115.030 112.869,115.034 113.220 C 115.039 113.570,115.363 113.958,115.754 114.082 C 116.146 114.206,116.563 114.793,116.682 115.387 C 116.800 115.980,117.141 116.708,117.438 117.005 C 117.735 117.302,118.100 118.101,118.249 118.779 C 118.398 119.458,118.747 120.101,119.025 120.207 C 119.303 120.314,119.703 120.896,119.914 121.502 C 120.125 122.107,120.795 123.328,121.403 124.215 C 122.010 125.102,122.621 126.191,122.760 126.635 C 123.749 129.798,127.234 130.874,129.142 128.606 C 129.728 127.911,130.456 127.072,130.761 126.742 C 131.066 126.412,131.315 125.950,131.315 125.715 C 131.315 125.479,131.656 125.105,132.072 124.882 C 132.488 124.659,132.829 124.242,132.829 123.955 C 132.829 123.469,133.587 122.420,135.194 120.679 C 135.558 120.285,135.856 119.793,135.856 119.587 C 135.856 119.381,136.197 118.999,136.613 118.739 C 137.029 118.479,137.370 118.065,137.370 117.819 C 137.370 117.573,137.796 116.865,138.316 116.247 C 138.836 115.628,139.262 114.972,139.262 114.788 C 139.262 114.604,139.603 114.162,140.019 113.806 C 140.435 113.449,140.776 112.842,140.776 112.456 C 140.776 112.070,141.116 111.446,141.533 111.069 C 141.949 110.692,142.289 110.068,142.289 109.682 C 142.289 109.296,142.630 108.689,143.046 108.332 C 143.463 107.976,143.803 107.419,143.803 107.096 C 143.803 106.772,144.144 106.215,144.560 105.859 C 144.976 105.502,145.317 104.960,145.317 104.654 C 145.317 104.348,145.627 103.793,146.005 103.421 C 146.384 103.048,146.901 102.020,147.156 101.135 C 147.410 100.251,147.766 99.527,147.948 99.527 C 148.129 99.527,148.393 98.842,148.535 98.006 C 148.676 97.169,149.042 96.234,149.348 95.928 C 149.654 95.622,150.004 94.759,150.125 94.011 C 150.247 93.262,150.569 92.564,150.841 92.460 C 151.113 92.355,151.448 91.519,151.586 90.600 C 151.724 89.682,151.960 88.931,152.111 88.931 C 152.641 88.931,153.264 86.986,153.264 85.330 C 153.264 84.357,153.581 83.091,154.021 82.308 C 154.558 81.352,154.778 80.259,154.778 78.544 C 154.778 75.929,155.039 74.812,155.574 75.143 C 155.761 75.258,155.913 74.678,155.913 73.853 C 155.913 71.408,158.381 71.523,106.087 71.523 L 58.645 71.523 58.745 60.454 L 58.846 49.385 84.866 49.196 L 110.887 49.007 111.640 47.768 C 112.312 46.663,112.394 45.852,112.394 40.294 L 112.394 34.059 122.990 34.059 L 133.586 34.059 133.586 40.663 C 133.586 44.859,133.745 47.619,134.024 48.229 L 134.462 49.191 160.419 49.288 L 186.377 49.385 186.477 60.454 L 186.577 71.523 182.433 71.523 C 175.814 71.523,175.605 71.692,175.597 77.046 C 175.592 80.306,175.486 80.962,174.877 81.513 C 174.361 81.980,174.090 82.932,173.901 84.948 C 173.726 86.821,173.463 87.805,173.102 87.944 C 172.768 88.072,172.564 88.694,172.564 89.587 C 172.564 90.377,172.226 91.653,171.814 92.423 C 171.401 93.193,170.952 94.522,170.815 95.376 C 170.679 96.230,170.349 97.146,170.084 97.412 C 169.818 97.678,169.482 98.688,169.336 99.657 C 169.191 100.626,168.928 101.419,168.752 101.419 C 168.576 101.419,168.222 102.118,167.966 102.972 C 167.710 103.826,167.290 104.606,167.033 104.705 C 166.776 104.804,166.453 105.552,166.315 106.368 C 166.177 107.185,165.922 107.852,165.748 107.852 C 165.575 107.852,165.229 108.468,164.981 109.221 C 164.732 109.973,164.208 110.910,163.816 111.302 C 163.424 111.694,163.103 112.350,163.103 112.759 C 163.103 113.168,162.763 113.685,162.346 113.907 C 161.930 114.130,161.589 114.578,161.589 114.903 C 161.589 115.228,161.271 115.945,160.882 116.498 C 160.493 117.050,160.055 117.888,159.909 118.359 C 159.763 118.831,159.485 119.119,159.292 118.999 C 159.098 118.880,158.940 119.188,158.940 119.685 C 158.940 120.181,158.515 120.987,157.994 121.476 C 157.474 121.965,157.048 122.677,157.048 123.059 C 157.048 123.441,156.708 124.045,156.291 124.402 C 155.875 124.758,155.535 125.344,155.535 125.704 C 155.535 126.064,155.302 126.494,155.018 126.660 C 154.734 126.827,154.219 127.517,153.873 128.193 C 153.527 128.869,153.079 129.423,152.876 129.423 C 152.673 129.423,152.507 129.672,152.507 129.977 C 152.507 130.282,152.186 130.703,151.794 130.913 C 151.401 131.123,150.971 131.732,150.837 132.267 C 150.702 132.801,150.447 133.148,150.269 133.038 C 150.091 132.928,149.725 133.371,149.456 134.021 C 149.187 134.672,148.315 135.848,147.520 136.636 C 146.725 137.423,146.074 138.251,146.074 138.476 C 146.074 138.700,145.895 138.884,145.676 138.884 C 145.457 138.884,145.026 139.487,144.718 140.225 C 144.410 140.962,143.908 141.662,143.602 141.779 C 143.296 141.896,143.046 142.157,143.046 142.359 C 143.046 142.561,142.511 143.261,141.857 143.915 C 137.944 147.828,138.575 149.427,147.297 157.692 C 147.561 157.943,147.996 158.411,148.265 158.733 C 148.811 159.388,150.131 159.493,150.993 158.949 C 151.454 158.658,151.584 157.360,151.682 152.052 C 151.790 146.169,151.876 145.446,152.533 144.833 C 153.052 144.349,153.266 143.636,153.272 142.369 C 153.278 141.185,153.529 140.269,154.021 139.640 C 154.428 139.120,154.765 138.548,154.769 138.370 C 154.776 138.096,157.128 135.721,159.347 133.745 C 159.675 133.454,160.487 133.106,161.152 132.973 C 161.818 132.840,162.455 132.580,162.570 132.395 C 162.684 132.211,162.936 132.158,163.129 132.277 C 163.323 132.397,163.482 132.318,163.482 132.102 C 163.482 131.833,175.140 131.676,200.320 131.606 C 230.877 131.522,237.266 131.416,237.785 130.985 C 238.362 130.506,238.410 125.612,238.409 67.598 L 238.407 4.730 237.452 2.847 C 236.927 1.811,236.204 0.790,235.845 0.577 C 234.740 -0.081,4.363 -0.110,2.526 0.547 M166.131 140.576 C 165.610 140.876,164.826 141.286,164.389 141.486 C 163.951 141.686,163.142 142.712,162.591 143.766 L 161.589 145.681 161.589 259.820 C 161.589 373.385,161.593 373.963,162.346 374.920 C 162.763 375.450,163.103 376.194,163.103 376.575 C 163.103 378.309,158.136 378.234,280.038 378.356 C 407.380 378.483,398.907 378.652,399.581 375.973 C 400.038 374.158,400.124 145.370,399.668 143.236 C 399.491 142.406,399.115 141.998,398.273 141.722 C 397.638 141.514,396.667 141.045,396.113 140.681 C 394.704 139.753,167.736 139.650,166.131 140.576 M301.000 189.813 C 301.127 190.143,301.230 190.812,301.230 191.300 C 301.230 191.788,301.477 192.435,301.778 192.737 C 302.080 193.038,302.446 194.180,302.591 195.275 C 302.751 196.485,303.130 197.500,303.556 197.865 C 304.057 198.294,304.257 198.981,304.257 200.273 C 304.257 201.268,304.400 202.081,304.575 202.081 C 305.121 202.081,305.771 203.943,305.771 205.505 C 305.771 206.328,305.941 207.001,306.149 207.001 C 306.358 207.001,306.528 207.331,306.528 207.735 C 306.528 208.139,306.698 208.575,306.906 208.704 C 307.114 208.833,307.285 209.583,307.285 210.371 C 307.285 211.229,307.569 212.133,307.993 212.621 C 308.420 213.114,308.803 214.342,308.959 215.717 C 309.101 216.970,309.373 217.899,309.564 217.781 C 309.922 217.559,310.114 218.203,310.468 220.812 C 310.581 221.644,310.905 222.496,311.188 222.705 C 311.470 222.913,311.806 223.971,311.933 225.054 C 312.060 226.137,312.409 227.415,312.707 227.892 C 313.006 228.370,313.364 229.527,313.503 230.464 C 313.642 231.400,313.982 232.511,314.258 232.933 C 314.533 233.354,314.883 234.601,315.035 235.703 C 315.186 236.806,315.538 237.795,315.815 237.901 C 316.100 238.011,316.432 238.985,316.575 240.134 C 316.715 241.255,317.052 242.356,317.322 242.581 C 317.593 242.806,317.937 243.875,318.085 244.958 C 318.234 246.040,318.674 247.331,319.064 247.828 C 319.477 248.353,319.773 249.336,319.773 250.181 C 319.773 250.980,320.114 252.239,320.530 252.980 C 320.946 253.721,321.299 254.876,321.313 255.546 C 321.338 256.688,321.952 258.725,322.023 257.900 C 322.115 256.821,322.790 258.888,322.795 260.265 C 322.798 261.317,323.042 262.114,323.497 262.570 C 323.910 262.983,324.292 264.095,324.435 265.294 C 324.579 266.512,324.904 267.449,325.251 267.643 C 325.626 267.853,325.828 268.526,325.828 269.570 C 325.828 270.452,326.149 271.803,326.541 272.572 C 326.933 273.342,327.369 274.738,327.509 275.675 C 327.650 276.613,327.986 277.601,328.256 277.871 C 328.527 278.142,328.871 279.346,329.021 280.548 C 329.173 281.769,329.511 282.817,329.785 282.922 C 330.066 283.030,330.384 284.061,330.527 285.324 C 330.676 286.645,330.984 287.616,331.291 287.734 C 331.579 287.844,331.925 288.815,332.080 289.945 C 332.231 291.052,332.588 292.293,332.873 292.702 C 333.159 293.110,333.501 294.271,333.635 295.281 C 333.769 296.291,334.085 297.323,334.336 297.575 C 334.588 297.826,334.911 298.709,335.054 299.536 C 335.584 302.600,335.736 303.124,336.037 302.938 C 336.475 302.667,336.802 303.706,336.802 305.373 C 336.802 306.231,337.105 307.189,337.559 307.766 C 338.053 308.394,338.316 309.302,338.316 310.375 C 338.316 311.612,338.504 312.140,339.073 312.495 C 339.633 312.845,339.830 313.377,339.830 314.548 C 339.830 315.417,340.154 316.820,340.550 317.667 C 340.946 318.513,341.380 319.999,341.514 320.969 C 341.648 321.940,341.980 322.818,342.251 322.923 C 342.537 323.032,342.840 324.035,342.972 325.313 C 343.109 326.645,343.430 327.683,343.785 327.942 C 344.107 328.178,344.371 328.906,344.371 329.559 L 344.371 330.747 329.542 330.747 C 312.514 330.747,312.961 330.836,312.961 327.480 C 312.961 326.388,312.730 325.636,312.253 325.180 C 311.803 324.750,311.478 323.777,311.362 322.513 C 311.262 321.418,310.922 320.226,310.607 319.864 C 310.292 319.502,309.923 318.184,309.786 316.935 C 309.649 315.686,309.311 314.493,309.034 314.284 C 308.757 314.076,308.410 312.940,308.263 311.762 C 308.115 310.579,307.776 309.534,307.507 309.431 C 307.234 309.327,306.907 308.298,306.767 307.107 C 306.629 305.931,306.279 304.596,305.990 304.140 C 305.701 303.684,305.347 302.413,305.203 301.315 C 305.058 300.217,304.700 299.077,304.406 298.783 C 304.111 298.489,303.759 297.431,303.622 296.432 C 303.187 293.257,304.897 293.484,280.633 293.376 C 268.754 293.324,258.864 293.409,258.656 293.566 C 257.339 294.554,256.197 297.018,256.197 298.870 C 256.197 300.292,256.003 301.006,255.482 301.499 C 255.011 301.946,254.676 302.980,254.499 304.541 C 254.351 305.841,254.095 306.821,253.929 306.719 C 253.572 306.498,253.317 307.469,252.968 310.382 C 252.826 311.565,252.496 312.615,252.235 312.715 C 251.974 312.815,251.644 313.891,251.502 315.105 C 251.360 316.320,251.001 317.636,250.705 318.031 C 250.409 318.425,250.053 319.756,249.914 320.988 C 249.774 322.220,249.426 323.462,249.141 323.747 C 248.855 324.033,248.512 325.319,248.377 326.605 C 248.205 328.253,247.886 329.209,247.296 329.845 L 246.460 330.747 232.407 330.747 L 218.354 330.747 218.354 328.882 C 218.354 327.663,218.567 326.804,218.970 326.401 C 219.310 326.061,219.675 324.985,219.782 324.008 C 219.890 323.032,220.277 321.848,220.643 321.377 C 221.009 320.906,221.425 319.513,221.568 318.282 C 221.713 317.034,222.040 315.962,222.309 315.859 C 222.579 315.755,222.902 314.681,223.047 313.406 C 223.188 312.158,223.533 310.946,223.814 310.713 C 224.095 310.480,224.442 309.347,224.586 308.196 C 224.735 307.005,225.066 306.019,225.353 305.908 C 225.632 305.802,225.980 304.837,226.127 303.765 C 226.275 302.693,226.619 301.471,226.893 301.050 C 227.167 300.629,227.506 299.347,227.646 298.202 C 227.787 297.058,228.143 295.928,228.438 295.692 C 228.734 295.456,229.075 294.349,229.197 293.232 C 229.319 292.115,229.669 291.001,229.975 290.757 C 230.300 290.497,230.616 289.363,230.738 288.023 C 230.852 286.764,231.083 285.819,231.252 285.923 C 231.618 286.149,232.351 283.682,232.354 282.214 C 232.355 281.641,232.526 281.173,232.734 281.173 C 232.942 281.173,233.113 280.833,233.113 280.416 C 233.113 280.000,233.283 279.659,233.491 279.659 C 233.699 279.659,233.869 278.840,233.869 277.839 C 233.869 276.541,234.087 275.784,234.626 275.205 C 235.141 274.653,235.383 273.870,235.383 272.758 C 235.383 271.592,235.600 270.938,236.140 270.476 C 236.591 270.089,236.897 269.359,236.897 268.668 C 236.897 268.030,237.219 266.794,237.612 265.921 C 238.005 265.047,238.446 263.448,238.591 262.365 C 238.736 261.283,239.076 260.214,239.347 259.989 C 239.618 259.764,239.956 258.650,240.098 257.514 C 240.243 256.353,240.592 255.316,240.894 255.146 C 241.220 254.964,241.529 253.920,241.677 252.504 C 241.812 251.216,242.051 250.242,242.208 250.339 C 242.596 250.579,242.876 249.756,243.176 247.498 C 243.314 246.454,243.556 245.601,243.712 245.601 C 244.084 245.601,244.844 242.565,244.844 241.081 C 244.844 240.445,244.987 239.924,245.162 239.924 C 245.646 239.924,246.358 238.131,246.358 236.910 C 246.358 235.559,246.717 234.570,247.119 234.818 C 247.285 234.921,247.535 234.111,247.674 233.018 C 248.003 230.428,248.235 229.653,248.612 229.886 C 248.987 230.117,249.372 228.794,249.381 227.247 C 249.385 226.623,249.728 225.554,250.143 224.873 C 250.619 224.093,250.899 222.966,250.899 221.835 C 250.899 220.504,251.096 219.867,251.656 219.388 C 252.196 218.925,252.412 218.271,252.412 217.104 C 252.412 216.039,252.655 215.208,253.110 214.720 C 253.496 214.306,253.927 213.070,254.075 211.954 C 254.223 210.844,254.566 209.713,254.839 209.440 C 255.112 209.167,255.456 208.039,255.602 206.933 C 255.749 205.828,256.118 204.648,256.423 204.311 C 256.728 203.974,257.082 202.781,257.211 201.660 C 257.340 200.539,257.663 199.492,257.930 199.334 C 258.196 199.176,258.532 198.103,258.676 196.950 C 258.820 195.797,259.158 194.633,259.427 194.364 C 259.697 194.094,260.041 193.048,260.192 192.038 C 260.344 191.029,260.656 189.987,260.887 189.723 C 261.591 188.917,300.690 189.005,301.000 189.813 M277.971 211.138 C 277.563 211.747,277.118 212.176,276.981 212.092 C 276.702 211.919,276.254 214.761,276.254 216.704 C 276.254 217.403,276.111 217.975,275.936 217.975 C 275.326 217.975,274.740 219.919,274.740 221.944 C 274.740 223.067,274.570 224.091,274.361 224.219 C 274.153 224.348,273.983 224.784,273.983 225.188 C 273.983 225.592,273.813 225.922,273.605 225.922 C 273.396 225.922,273.225 226.902,273.224 228.098 C 273.222 229.633,273.000 230.609,272.469 231.410 C 271.907 232.258,271.717 233.187,271.715 235.086 C 271.713 237.238,271.597 237.689,270.956 238.032 C 270.413 238.322,270.194 238.836,270.182 239.843 C 270.173 240.616,269.901 241.930,269.578 242.763 C 269.255 243.595,268.808 245.298,268.584 246.547 C 268.360 247.796,267.951 248.988,267.675 249.196 C 267.399 249.404,267.060 250.681,266.921 252.034 C 266.782 253.387,266.445 254.664,266.172 254.872 C 265.899 255.080,265.560 256.272,265.420 257.521 C 265.279 258.770,265.008 259.895,264.816 260.020 C 264.379 260.307,263.786 262.805,263.774 264.409 C 263.769 265.156,263.515 265.760,263.111 265.986 C 262.416 266.375,262.140 270.412,262.713 271.807 C 263.096 272.740,296.288 272.840,297.060 271.910 C 297.775 271.049,297.438 265.077,296.640 264.444 C 296.274 264.154,295.932 263.127,295.800 261.920 C 295.678 260.801,295.341 259.524,295.052 259.082 C 294.764 258.640,294.405 257.297,294.256 256.097 C 294.106 254.897,293.839 254.006,293.661 254.116 C 293.269 254.358,293.039 253.606,292.711 251.022 C 292.565 249.869,292.242 248.979,291.927 248.858 C 291.624 248.742,291.391 248.142,291.391 247.483 C 291.391 245.910,290.616 242.918,290.265 243.135 C 290.110 243.231,289.873 242.250,289.739 240.955 C 289.603 239.637,289.264 238.427,288.969 238.208 C 288.667 237.984,288.324 236.720,288.167 235.256 C 288.016 233.848,287.684 232.488,287.429 232.233 C 287.175 231.978,286.780 230.513,286.552 228.977 C 286.324 227.441,285.982 226.082,285.791 225.959 C 285.601 225.835,285.262 224.482,285.038 222.953 C 284.813 221.424,284.363 219.878,284.037 219.517 C 283.658 219.099,283.444 218.150,283.444 216.893 C 283.444 215.601,283.270 214.858,282.939 214.731 C 282.662 214.624,282.406 214.331,282.371 214.080 C 281.838 210.248,281.710 210.043,279.849 210.035 C 279.012 210.032,278.518 210.322,277.971 211.138 " stroke="none" fill="#4a7db1" fill-rule="evenodd"></path><path id="path2" d="M0.187 118.827 C 0.187 182.204,0.230 208.132,0.284 176.443 C 0.337 144.754,0.337 92.900,0.284 61.211 C 0.230 29.522,0.187 55.449,0.187 118.827 M238.595 67.360 C 238.595 101.183,238.640 115.019,238.694 98.108 C 238.749 81.197,238.749 53.524,238.694 36.613 C 238.640 19.702,238.595 33.538,238.595 67.360 M71.618 49.479 C 78.642 49.537,90.137 49.537,97.162 49.479 C 104.186 49.422,98.439 49.375,84.390 49.375 C 70.341 49.375,64.593 49.422,71.618 49.479 M147.899 49.480 C 155.043 49.537,166.623 49.537,173.632 49.479 C 180.642 49.422,174.797 49.375,160.643 49.375 C 146.490 49.375,140.755 49.422,147.899 49.480 M155.014 75.511 C 154.884 75.850,154.795 76.495,154.816 76.947 C 154.841 77.465,154.969 77.281,155.166 76.445 C 155.496 75.039,155.407 74.487,155.014 75.511 M175.316 79.470 C 175.316 80.407,175.390 80.790,175.480 80.322 C 175.570 79.853,175.570 79.087,175.480 78.619 C 175.390 78.150,175.316 78.534,175.316 79.470 M158.606 119.458 C 158.582 119.701,158.452 120.212,158.317 120.593 C 158.127 121.131,158.177 121.190,158.542 120.854 C 158.800 120.616,158.930 120.105,158.831 119.719 C 158.731 119.332,158.630 119.215,158.606 119.458 M41.563 238.694 C 61.612 238.749,94.309 238.749,114.221 238.694 C 134.134 238.640,117.729 238.596,77.767 238.596 C 37.805 238.596,21.513 238.640,41.563 238.694 M271.996 272.753 C 276.419 272.813,283.657 272.813,288.079 272.753 C 292.502 272.692,288.884 272.643,280.038 272.643 C 271.192 272.643,267.573 272.692,271.996 272.753 M225.474 330.652 C 229.495 330.714,235.966 330.714,239.855 330.652 C 243.743 330.591,240.454 330.541,232.545 330.541 C 224.636 330.541,221.454 330.591,225.474 330.652 M321.734 330.652 C 325.831 330.713,332.643 330.713,336.872 330.652 C 341.100 330.591,337.748 330.542,329.423 330.541 C 321.097 330.541,317.638 330.591,321.734 330.652 " stroke="none" fill="#00ffff" fill-rule="evenodd"></path></g></svg>